<?xml version="1.0" encoding="UTF-8"?>
<!-- Generator: visioncortex VTracer 0.6.3 -->
<svg version="1.1" xmlns="http://www.w3.org/2000/svg" width="796" height="1280">
<path d="M0 0 C262.68 0 525.36 0 796 0 C796 422.4 796 844.8 796 1280 C533.32 1280 270.64 1280 0 1280 C0 857.6 0 435.2 0 0 Z " fill="#00000000" transform="translate(0,0)"/>
<path d="M0 0 C257.07 0 514.14 0 779 0 C779 327.03 779 654.06 779 991 C683.16 991.02 587.31 991.04 488.56 991.06 C458.24 991.07 427.92 991.08 396.67 991.09 C359.8 991.09 359.8 991.09 342.57 991.1 C329.67 991.1 316.77 991.1 303.87 991.11 C290.73 991.11 277.59 991.11 264.45 991.11 C256.63 991.11 248.81 991.11 240.98 991.12 C235.23 991.12 229.47 991.12 223.72 991.12 C221.38 991.12 219.03 991.12 216.69 991.12 C213.53 991.13 210.36 991.13 207.2 991.12 C206.27 991.13 205.34 991.13 204.38 991.13 C198.11 991.11 198.11 991.11 197 990 C196.9 987.9 196.87 985.8 196.87 983.71 C196.86 983.04 196.86 982.37 196.86 981.69 C196.85 979.44 196.85 977.2 196.85 974.96 C196.85 973.35 196.85 971.75 196.84 970.15 C196.84 965.78 196.83 961.42 196.83 957.05 C196.83 953.41 196.83 949.77 196.82 946.13 C196.82 937.55 196.81 928.97 196.81 920.39 C196.82 911.53 196.8 902.66 196.79 893.8 C196.78 886.2 196.77 878.6 196.77 871 C196.77 866.46 196.77 861.91 196.76 857.37 C196.75 853.1 196.75 848.82 196.76 844.55 C196.76 842.98 196.75 841.41 196.75 839.84 C196.74 837.7 196.75 835.56 196.75 833.42 C196.75 832.22 196.75 831.02 196.75 829.79 C197 827 197 827 199 825 C201.9 824.75 201.9 824.75 205.7 824.75 C206.4 824.75 207.1 824.75 207.82 824.75 C210.18 824.74 212.55 824.75 214.92 824.76 C216.62 824.76 218.32 824.76 220.02 824.75 C224.73 824.75 229.43 824.76 234.13 824.77 C239.27 824.78 244.41 824.77 249.55 824.77 C259.53 824.77 269.52 824.78 279.5 824.79 C291.05 824.81 302.59 824.81 314.14 824.81 C344.63 824.82 375.13 824.85 405.62 824.88 C473.73 824.92 541.83 824.96 612 825 C611.67 607.86 611.34 390.72 611 167 C410.67 166.71 410.67 166.71 210.33 166.43 C171.69 166.37 171.69 166.37 153.62 166.34 C140.11 166.32 126.59 166.31 113.07 166.29 C99.3 166.27 85.53 166.25 71.76 166.23 C63.57 166.21 55.37 166.2 47.17 166.19 C41.14 166.19 35.1 166.18 29.07 166.16 C26.62 166.16 24.17 166.16 21.71 166.16 C18.39 166.16 15.08 166.15 11.76 166.14 C10.79 166.14 9.81 166.14 8.81 166.14 C7.93 166.14 7.06 166.13 6.15 166.13 C5.39 166.13 4.63 166.13 3.85 166.13 C2 166 2 166 0 165 C0 110.55 0 56.1 0 0 Z " fill="#FFFFFF" transform="translate(9,0)"/>
<path d="M0 0 C1.21 0 2.41 0 3.66 0 C4.33 -0 5 -0 5.69 -0.01 C7.95 -0.01 10.2 -0 12.46 0.01 C14.08 0 15.69 0 17.3 0 C21.7 -0 26.09 0 30.48 0.01 C35.07 0.02 39.66 0.02 44.25 0.02 C51.95 0.02 59.66 0.03 67.36 0.04 C76.28 0.06 85.2 0.06 94.12 0.06 C102.69 0.06 111.25 0.07 119.82 0.08 C123.47 0.08 127.13 0.08 130.78 0.08 C135.08 0.08 139.37 0.09 143.67 0.1 C145.25 0.1 146.83 0.1 148.41 0.1 C150.56 0.1 152.71 0.11 154.86 0.12 C156.07 0.12 157.27 0.12 158.52 0.12 C161.2 0.25 161.2 0.25 162.2 1.25 C162.29 2.99 162.32 4.73 162.32 6.46 C162.32 7.6 162.32 8.74 162.33 9.92 C162.32 11.19 162.32 12.46 162.32 13.77 C162.32 15.13 162.32 16.48 162.32 17.84 C162.33 21.6 162.32 25.35 162.32 29.11 C162.31 33.19 162.32 37.26 162.32 41.34 C162.32 48.49 162.32 55.65 162.31 62.8 C162.31 73.44 162.31 84.08 162.31 94.72 C162.31 112.61 162.31 130.51 162.3 148.4 C162.3 166.13 162.29 183.85 162.29 201.58 C162.29 202.68 162.29 203.78 162.29 204.91 C162.29 210.5 162.29 216.09 162.29 221.68 C162.29 261.31 162.28 300.93 162.27 340.56 C162.26 379.06 162.25 417.57 162.25 456.07 C162.25 457.26 162.25 458.44 162.25 459.66 C162.25 471.58 162.25 483.49 162.25 495.4 C162.24 519.67 162.24 543.93 162.24 568.2 C162.24 569.87 162.24 569.87 162.24 571.58 C162.23 646.14 162.21 720.69 162.2 795.25 C140.57 795.27 118.94 795.29 97.32 795.3 C87.28 795.31 77.23 795.31 67.19 795.32 C58.45 795.33 49.7 795.34 40.95 795.34 C36.31 795.34 31.68 795.35 27.04 795.35 C22.69 795.36 18.33 795.36 13.97 795.36 C12.37 795.36 10.76 795.36 9.16 795.37 C6.98 795.37 4.8 795.37 2.62 795.37 C1.39 795.37 0.17 795.37 -1.09 795.37 C-3.8 795.25 -3.8 795.25 -4.8 794.25 C-4.9 792.52 -4.93 790.78 -4.93 789.05 C-4.93 787.91 -4.94 786.77 -4.94 785.6 C-4.94 784.34 -4.94 783.07 -4.93 781.76 C-4.93 780.41 -4.94 779.06 -4.94 777.71 C-4.94 773.96 -4.94 770.21 -4.94 766.47 C-4.94 762.4 -4.94 758.34 -4.95 754.28 C-4.95 747.14 -4.95 740.01 -4.95 732.88 C-4.95 722.27 -4.95 711.66 -4.96 701.05 C-4.97 681.01 -4.97 660.97 -4.97 640.92 C-4.97 625.45 -4.97 609.98 -4.98 594.5 C-4.98 590.06 -4.98 585.61 -4.98 581.16 C-4.98 580.06 -4.98 578.95 -4.98 577.81 C-4.99 546.7 -4.99 515.59 -4.99 484.48 C-4.99 483.3 -4.99 482.13 -4.99 480.92 C-4.99 474.97 -4.99 469.02 -4.99 463.07 C-4.99 461.89 -4.99 460.71 -4.99 459.49 C-4.99 457.1 -4.99 454.71 -4.99 452.32 C-4.99 415.12 -5 377.92 -5.01 340.72 C-5.03 298.97 -5.03 257.22 -5.03 215.47 C-5.03 211.02 -5.03 206.58 -5.03 202.13 C-5.03 201.03 -5.03 199.94 -5.03 198.81 C-5.03 181.15 -5.04 163.48 -5.05 145.82 C-5.06 128.08 -5.06 110.35 -5.05 92.61 C-5.05 82.06 -5.05 71.51 -5.06 60.96 C-5.06 53.92 -5.06 46.89 -5.06 39.85 C-5.05 35.83 -5.05 31.82 -5.06 27.8 C-5.07 24.15 -5.07 20.51 -5.06 16.86 C-5.05 14.92 -5.06 12.97 -5.07 11.03 C-5.06 9.89 -5.06 8.75 -5.05 7.57 C-5.05 6.59 -5.05 5.6 -5.05 4.58 C-4.67 0.97 -3.54 0.31 0 0 Z " fill="#FFFFFF" transform="translate(13.804551124572754,195.7511110305786)"/>
<path d="M0 0 C9.43 0.73 18.44 3.03 27.58 5.34 C28.45 5.56 29.32 5.78 30.22 6 C57.56 12.9 84.21 21.96 110.14 33.03 C110.96 33.38 111.78 33.72 112.62 34.08 C160.46 54.47 205.4 81.43 245.14 115.03 C245.65 115.46 246.16 115.88 246.69 116.32 C262.77 129.78 278.85 144.06 292.45 160.06 C294.38 162.31 296.39 164.48 298.39 166.66 C303.98 172.86 309.09 179.39 314.14 186.03 C314.69 186.75 315.24 187.47 315.81 188.21 C348.92 231.8 373.75 281.32 381.14 336.03 C381.27 336.95 381.27 336.95 381.4 337.9 C382.13 343.82 382.26 349.63 382.21 355.59 C382.2 356.96 382.2 356.96 382.19 358.36 C382.18 360.58 382.17 362.81 382.14 365.03 C360.65 365.05 339.15 365.07 317.66 365.08 C307.68 365.09 297.7 365.09 287.72 365.11 C279.02 365.12 270.32 365.12 261.63 365.12 C257.02 365.13 252.41 365.13 247.81 365.14 C243.48 365.14 239.14 365.15 234.81 365.14 C233.22 365.14 231.62 365.15 230.03 365.15 C227.86 365.15 225.7 365.15 223.53 365.15 C221.7 365.15 221.7 365.15 219.84 365.15 C217.14 365.03 217.14 365.03 216.14 364.03 C215.89 362.5 215.7 360.97 215.53 359.43 C215.36 357.99 215.36 357.99 215.19 356.53 C215.07 355.5 214.95 354.47 214.83 353.41 C213.66 343.97 212.1 335.09 209.14 326.03 C208.94 325.4 208.74 324.77 208.52 324.12 C196.46 287.83 169.43 254.16 140.14 230.03 C139.61 229.58 139.08 229.14 138.53 228.68 C98.35 195.04 51.14 170.68 1.59 154 C-0.86 153.03 -0.86 153.03 -2.86 151.03 C-3.1 148.44 -3.1 148.44 -3.1 145.1 C-3.11 143.84 -3.11 142.58 -3.12 141.27 C-3.11 139.87 -3.1 138.46 -3.1 137.05 C-3.1 135.57 -3.1 134.1 -3.1 132.62 C-3.11 128.6 -3.1 124.59 -3.09 120.57 C-3.08 116.38 -3.08 112.18 -3.08 107.98 C-3.08 100.94 -3.08 93.89 -3.06 86.85 C-3.05 78.69 -3.04 70.53 -3.04 62.38 C-3.04 54.54 -3.04 46.71 -3.03 38.87 C-3.02 35.53 -3.02 32.19 -3.02 28.85 C-3.02 24.93 -3.02 21 -3.01 17.07 C-3 15.62 -3 14.18 -3 12.73 C-3 10.76 -3 8.8 -2.99 6.83 C-2.99 5.73 -2.99 4.63 -2.98 3.49 C-2.8 0.05 -2.8 0.05 0 0 Z " fill="#FFFFFF" transform="translate(208.855712890625,429.969482421875)"/>
<path d="M0 0 C1.2 0 2.4 0 3.63 0 C4.3 -0 4.97 -0 5.65 -0.01 C7.9 -0.01 10.14 -0 12.39 0.01 C13.99 0 15.59 0 17.2 0 C21.56 -0 25.93 0 30.3 0.01 C34.86 0.02 39.42 0.02 43.98 0.02 C51.63 0.02 59.29 0.03 66.95 0.04 C75.81 0.06 84.68 0.06 93.55 0.06 C102.06 0.06 110.57 0.07 119.09 0.08 C122.72 0.08 126.35 0.08 129.98 0.08 C134.25 0.08 138.52 0.09 142.79 0.1 C144.36 0.1 145.93 0.1 147.51 0.1 C149.64 0.1 151.78 0.11 153.92 0.12 C155.71 0.12 155.71 0.12 157.55 0.12 C160.21 0.25 160.21 0.25 161.21 1.25 C165.59 66.04 131.56 132.02 92.21 181.25 C91.45 182.2 90.69 183.15 89.91 184.14 C85.61 189.46 81.16 194.62 76.55 199.67 C75.3 201.05 74.06 202.43 72.85 203.85 C67.42 210.23 61.51 216.1 55.59 222 C53.78 223.81 51.97 225.62 50.17 227.43 C44.35 233.25 38.52 238.96 32.21 244.25 C31.15 245.16 30.1 246.07 29.04 246.99 C18.61 255.88 7.78 264.16 -3.29 272.25 C-4.05 272.81 -4.82 273.38 -5.61 273.96 C-7.64 275.43 -9.7 276.85 -11.79 278.25 C-13.02 279.08 -13.02 279.08 -14.28 279.94 C-18.72 280.49 -21.88 277.62 -25.48 275.25 C-27.28 274.12 -29.08 272.99 -30.88 271.87 C-31.84 271.28 -32.8 270.68 -33.79 270.07 C-81.95 240.88 -141.67 214.93 -197.79 206.25 C-196.79 203.25 -196.79 203.25 -194.7 202.1 C-193.78 201.74 -192.86 201.38 -191.92 201.01 C-190.36 200.38 -190.36 200.38 -188.78 199.74 C-187.08 199.06 -187.08 199.06 -185.35 198.37 C-130.8 175.95 -74.87 140.75 -39.79 92.25 C-39.09 91.33 -38.39 90.42 -37.68 89.48 C-19.61 65.52 -8.09 38.11 -5.52 8.11 C-4.81 0.43 -4.81 0.43 0 0 Z " fill="#FFFFFF" transform="translate(429.7889337539673,195.7511110305786)"/>
<path d="M0 0 C0.65 -0.01 1.3 -0.01 1.98 -0.02 C4.14 -0.04 6.31 -0.04 8.48 -0.05 C9.99 -0.05 11.5 -0.06 13.02 -0.07 C16.2 -0.08 19.38 -0.08 22.56 -0.08 C26.61 -0.08 30.65 -0.11 34.69 -0.14 C37.82 -0.16 40.96 -0.17 44.09 -0.17 C45.58 -0.17 47.07 -0.18 48.55 -0.19 C58.64 -0.29 70.18 -0.39 78.24 6.51 C85.47 14.16 87.02 22.11 86.85 32.42 C86.24 41.03 83.66 46.08 77.29 51.89 C76.75 52.35 76.2 52.82 75.65 53.29 C76.33 53.79 77.01 54.28 77.71 54.79 C80.07 56.8 82.17 58.77 84.27 61.04 C84.84 61.65 85.41 62.27 86 62.9 C90.68 69.69 91.14 76.22 91.08 84.23 C91.1 85.17 91.12 86.1 91.14 87.07 C91.14 94.26 89.88 100.69 84.95 106.18 C79.13 111.75 72.37 112.59 64.52 112.53 C63.74 112.54 62.96 112.54 62.16 112.54 C59.61 112.54 57.05 112.53 54.5 112.52 C52.72 112.52 50.93 112.52 49.15 112.52 C45.43 112.52 41.71 112.51 37.99 112.5 C33.21 112.48 28.44 112.48 23.66 112.48 C19.99 112.48 16.31 112.47 12.64 112.46 C10.88 112.46 9.12 112.46 7.35 112.46 C4.9 112.46 2.45 112.45 -0.01 112.44 C-0.74 112.44 -1.48 112.44 -2.23 112.44 C-7.24 112.41 -7.24 112.41 -8.35 111.29 C-8.45 109.88 -8.49 108.46 -8.49 107.05 C-8.49 106.13 -8.5 105.21 -8.5 104.27 C-8.5 103.26 -8.5 102.25 -8.5 101.2 C-8.5 100.14 -8.51 99.08 -8.51 97.99 C-8.52 94.47 -8.52 90.94 -8.52 87.42 C-8.53 84.98 -8.53 82.54 -8.53 80.11 C-8.54 74.99 -8.54 69.87 -8.54 64.76 C-8.54 58.18 -8.55 51.61 -8.57 45.04 C-8.58 40 -8.58 34.97 -8.58 29.93 C-8.58 27.51 -8.59 25.08 -8.6 22.66 C-8.61 19.27 -8.6 15.89 -8.6 12.51 C-8.6 11.5 -8.61 10.49 -8.61 9.45 C-8.61 8.53 -8.61 7.61 -8.6 6.66 C-8.6 5.86 -8.6 5.06 -8.6 4.24 C-7.97 -0.71 -4.03 0.03 0 0 Z " fill="#FFFFFF" transform="translate(438.354736328125,1075.70947265625)"/>
<path d="M0 0 C1.16 0.01 2.33 0.02 3.52 0.03 C5.41 0.04 5.41 0.04 7.33 0.05 C9.31 0.08 9.31 0.08 11.33 0.1 C12.67 0.11 14.01 0.12 15.35 0.13 C18.63 0.15 21.92 0.19 25.2 0.23 C31.63 11.7 37.93 23.23 44.12 34.84 C50.11 47.28 50.11 47.28 58.2 58.23 C63.61 49.04 68.68 39.69 73.7 30.29 C74.03 29.68 74.36 29.07 74.69 28.44 C77.78 22.67 80.85 16.91 83.88 11.12 C84.44 10.06 84.44 10.06 85 8.97 C85.94 7.19 86.86 5.41 87.78 3.62 C89.2 1.23 89.2 1.23 91.2 0.23 C93.3 0.13 95.39 0.1 97.49 0.09 C98.74 0.09 99.99 0.09 101.28 0.09 C102.6 0.09 103.91 0.1 105.27 0.1 C106.58 0.1 107.9 0.09 109.26 0.09 C110.51 0.09 111.76 0.09 113.05 0.09 C114.21 0.1 115.36 0.1 116.55 0.1 C119.2 0.23 119.2 0.23 120.2 1.23 C120.3 2.67 120.32 4.12 120.32 5.56 C120.32 6.96 120.32 6.96 120.33 8.4 C120.32 9.95 120.32 9.95 120.32 11.53 C120.32 12.61 120.32 13.7 120.32 14.81 C120.32 18.41 120.31 22.01 120.3 25.61 C120.3 28.09 120.3 30.58 120.3 33.07 C120.29 38.96 120.28 44.85 120.27 50.74 C120.26 58.1 120.26 65.46 120.25 72.82 C120.24 85.95 120.22 99.09 120.2 112.23 C116.23 112.25 112.26 112.27 108.29 112.28 C106.94 112.29 105.59 112.29 104.24 112.3 C102.3 112.31 100.36 112.32 98.43 112.32 C96.67 112.33 96.67 112.33 94.89 112.34 C92.2 112.23 92.2 112.23 91.2 111.23 C91.11 109.45 91.09 107.66 91.09 105.88 C91.09 104.17 91.09 104.17 91.09 102.42 C91.09 101.18 91.1 99.94 91.1 98.66 C91.11 97.4 91.11 96.13 91.11 94.83 C91.11 91.47 91.12 88.1 91.13 84.74 C91.14 81.3 91.15 77.87 91.15 74.44 C91.16 67.7 91.18 60.96 91.2 54.23 C90.54 54.23 89.88 54.23 89.2 54.23 C88.8 55.29 88.8 55.29 88.38 56.38 C87.18 59.28 85.8 61.97 84.3 64.72 C83.74 65.75 83.18 66.79 82.6 67.86 C82.02 68.93 81.43 70 80.83 71.1 C79.96 72.7 79.96 72.7 79.08 74.32 C76.18 79.66 73.24 84.97 70.2 90.23 C66.45 90.34 62.7 90.41 58.95 90.48 C57.89 90.51 56.83 90.54 55.73 90.58 C54.71 90.59 53.68 90.6 52.62 90.62 C51.21 90.65 51.21 90.65 49.77 90.68 C46.33 90.07 45.36 88.94 43.2 86.23 C41.86 84.04 40.62 81.89 39.42 79.63 C39.08 79 38.73 78.38 38.38 77.73 C37.29 75.73 36.22 73.73 35.14 71.73 C34.06 69.73 32.98 67.72 31.89 65.73 C31.22 64.49 30.55 63.24 29.88 62 C28.16 58.83 26.38 56.13 24.2 53.23 C23.87 72.7 23.54 92.17 23.2 112.23 C14.29 112.23 5.38 112.23 -3.8 112.23 C-5.36 110.67 -4.93 109.15 -4.93 106.98 C-4.94 106.07 -4.94 105.15 -4.94 104.21 C-4.94 103.2 -4.94 102.18 -4.94 101.14 C-4.95 100.08 -4.95 99.02 -4.95 97.93 C-4.96 94.4 -4.96 90.88 -4.97 87.36 C-4.97 84.92 -4.97 82.48 -4.98 80.04 C-4.98 74.93 -4.98 69.81 -4.98 64.69 C-4.98 58.12 -5 51.55 -5.01 44.98 C-5.02 39.94 -5.03 34.9 -5.03 29.87 C-5.03 27.44 -5.03 25.02 -5.04 22.59 C-5.05 19.21 -5.05 15.83 -5.04 12.44 C-5.05 11.43 -5.05 10.42 -5.06 9.38 C-5.05 8.46 -5.05 7.55 -5.04 6.6 C-5.05 5.8 -5.05 5 -5.05 4.17 C-4.61 0.78 -3.24 0.26 0 0 Z " fill="#FFFFFF" transform="translate(269.79736328125,1075.77294921875)"/>
<path d="M0 0 C1.25 0.01 2.49 0.02 3.78 0.03 C4.77 0.04 4.77 0.04 5.79 0.04 C7.91 0.05 10.02 0.08 12.14 0.1 C13.58 0.11 15.02 0.12 16.45 0.13 C19.97 0.15 23.5 0.19 27.02 0.23 C30.55 6.92 33.24 13.79 35.88 20.88 C36.59 22.76 37.29 24.65 38 26.53 C38.75 28.52 39.5 30.52 40.24 32.51 C41.78 36.63 43.32 40.74 44.87 44.85 C45.38 46.23 45.9 47.62 46.42 49 C46.68 49.68 46.94 50.37 47.2 51.07 C47.98 53.15 48.76 55.22 49.54 57.3 C53.78 68.61 58.06 79.91 62.36 91.21 C63.05 93.01 63.73 94.81 64.42 96.61 C65.35 99.07 66.29 101.53 67.23 103.99 C67.64 105.06 67.64 105.06 68.05 106.15 C69.42 109.74 69.42 109.74 71.02 113.23 C60.46 112.9 49.9 112.57 39.02 112.23 C37.7 109.26 36.38 106.29 35.02 103.23 C34.6 102.31 34.18 101.39 33.75 100.45 C33.43 99.74 33.1 99.02 32.77 98.29 C32.27 97.19 32.27 97.19 31.75 96.07 C31.02 94.23 31.02 94.23 31.02 92.23 C18.15 92.56 5.28 92.89 -7.98 93.23 C-8.97 96.53 -9.96 99.83 -10.98 103.23 C-12.3 106.2 -13.62 109.17 -14.98 112.23 C-24.88 112.56 -34.78 112.89 -44.98 113.23 C-43.86 104.23 -43.86 104.23 -42.58 100.9 C-42.29 100.15 -42 99.39 -41.71 98.61 C-41.4 97.81 -41.08 97.01 -40.76 96.18 C-40.43 95.32 -40.1 94.45 -39.76 93.56 C-38.68 90.72 -37.58 87.88 -36.48 85.04 C-35.72 83.05 -34.96 81.06 -34.2 79.07 C-32.61 74.91 -31.01 70.75 -29.42 66.59 C-25.85 57.29 -22.34 47.97 -18.83 38.65 C-16.46 32.36 -14.09 26.07 -11.71 19.79 C-10.61 16.91 -9.53 14.02 -8.46 11.14 C-8.02 9.96 -7.58 8.78 -7.12 7.57 C-6.57 6.07 -6.57 6.07 -6 4.55 C-4.5 1.14 -3.78 0.29 0 0 Z " fill="#FFFFFF" transform="translate(600.98095703125,1075.77294921875)"/>
<path d="M0 0 C1.37 -0.02 2.75 -0.04 4.12 -0.08 C6.1 -0.14 8.08 -0.16 10.06 -0.17 C11.24 -0.19 12.43 -0.21 13.65 -0.23 C16.62 0.35 16.62 0.35 18.39 2.51 C19.65 5.41 20.87 8.28 21.99 11.24 C22.68 13.07 22.68 13.07 23.39 14.94 C23.91 16.3 24.42 17.67 24.94 19.04 C25.49 20.49 26.03 21.94 26.58 23.38 C27.85 26.72 29.11 30.06 30.38 33.4 C32.98 40.29 35.59 47.17 38.2 54.05 C39.18 56.64 40.17 59.24 41.16 61.84 C41.4 62.49 41.65 63.13 41.9 63.8 C43.61 68.3 45.31 72.8 47.02 77.3 C47.48 78.53 47.95 79.75 48.43 81.02 C49.3 83.31 50.17 85.61 51.04 87.9 C51.63 89.48 51.63 89.48 52.24 91.09 C52.63 92.11 53.01 93.13 53.41 94.18 C54.28 96.44 55.15 98.7 56.04 100.96 C56.5 102.14 56.95 103.31 57.43 104.52 C57.85 105.59 58.27 106.66 58.7 107.76 C59.62 110.35 59.62 110.35 59.62 112.35 C55.39 112.37 51.15 112.39 46.92 112.41 C45.47 112.41 44.03 112.42 42.59 112.43 C40.52 112.44 38.45 112.44 36.38 112.45 C35.14 112.45 33.89 112.46 32.6 112.46 C29.62 112.35 29.62 112.35 27.62 111.35 C26.86 109.69 26.86 109.69 26.15 107.57 C25.89 106.81 25.63 106.05 25.36 105.27 C25.1 104.47 24.83 103.67 24.56 102.85 C24.03 101.28 23.5 99.7 22.96 98.13 C22.73 97.43 22.5 96.73 22.26 96.01 C21.75 94.34 21.75 94.34 20.62 93.35 C17.74 93.26 14.88 93.23 11.99 93.25 C11.13 93.25 10.27 93.26 9.38 93.26 C6.6 93.26 3.83 93.27 1.06 93.29 C-0.81 93.29 -2.69 93.3 -4.56 93.3 C-9.17 93.31 -13.77 93.33 -18.38 93.35 C-18.56 93.97 -18.74 94.59 -18.93 95.22 C-19.18 96.07 -19.43 96.92 -19.69 97.79 C-19.93 98.61 -20.18 99.44 -20.43 100.28 C-21.68 104.33 -23.04 108.34 -24.38 112.35 C-34.28 112.35 -44.18 112.35 -54.38 112.35 C-55.6 108.67 -55.02 107.7 -53.68 104.13 C-53.08 102.52 -53.08 102.52 -52.47 100.88 C-52.02 99.72 -51.58 98.55 -51.12 97.35 C-50.66 96.13 -50.21 94.92 -49.74 93.67 C-48.51 90.38 -47.27 87.1 -46.02 83.82 C-44.74 80.44 -43.47 77.05 -42.19 73.66 C-39.71 67.06 -37.21 60.46 -34.71 53.86 C-33.52 50.73 -32.34 47.6 -31.15 44.47 C-27.59 35.09 -24.02 25.71 -20.38 16.35 C-20.12 15.68 -19.86 15 -19.59 14.31 C-18.79 12.21 -17.97 10.12 -17.16 8.02 C-16.91 7.37 -16.66 6.72 -16.41 6.05 C-13.35 -1.73 -7.57 0.07 0 0 Z " fill="#FFFFFF" transform="translate(175.376220703125,1075.64990234375)"/>
<path d="M0 0 C1.97 0 1.97 0 3.98 0.01 C6.73 0.01 9.47 0.02 12.22 0.05 C15.75 0.08 19.28 0.09 22.81 0.09 C26.19 0.1 29.56 0.11 32.94 0.12 C34.21 0.13 35.48 0.13 36.78 0.14 C37.95 0.15 39.11 0.16 40.31 0.17 C41.33 0.17 42.36 0.18 43.42 0.19 C45.74 0.33 45.74 0.33 46.74 1.33 C46.83 2.96 46.85 4.6 46.84 6.24 C46.83 7.72 46.83 7.72 46.83 9.24 C46.81 10.8 46.81 10.8 46.8 12.39 C46.8 13.44 46.79 14.48 46.79 15.56 C46.78 18.15 46.76 20.74 46.74 23.33 C46.08 23.34 45.43 23.35 44.75 23.36 C37.94 23.47 31.13 23.58 24.31 23.7 C21.77 23.74 19.23 23.79 16.68 23.83 C13.03 23.88 9.38 23.95 5.72 24.01 C4.58 24.03 3.45 24.05 2.27 24.06 C1.21 24.08 0.15 24.1 -0.94 24.12 C-2.34 24.15 -2.34 24.15 -3.77 24.17 C-6.07 24.32 -8.06 24.68 -10.26 25.33 C-12.19 30.66 -13.12 35.81 -11.26 41.33 C-8.67 44.11 -7.14 44.34 -3.29 44.71 C-1.69 44.73 -0.08 44.74 1.53 44.73 C2.82 44.75 2.82 44.75 4.13 44.77 C6.87 44.8 9.62 44.82 12.36 44.83 C39.91 44.94 39.91 44.94 48.74 52.33 C56.35 60.83 56.08 69.81 56.05 80.77 C56.07 82.69 56.07 82.69 56.1 84.66 C56.1 93.88 55.38 101.74 48.71 108.67 C41.04 115.13 30.78 114.89 21.3 114.7 C19.92 114.69 18.54 114.67 17.16 114.66 C-36.62 113.97 -36.62 113.97 -40.26 110.33 C-40.35 108.91 -40.37 107.49 -40.36 106.07 C-40.36 105.22 -40.35 104.37 -40.35 103.49 C-40.34 102.59 -40.33 101.69 -40.32 100.77 C-40.32 99.86 -40.32 98.96 -40.31 98.03 C-40.3 95.8 -40.28 93.56 -40.26 91.33 C-37.33 89.64 -35.38 89.1 -32.01 89.28 C-31.17 89.32 -30.34 89.37 -29.48 89.41 C-28.59 89.46 -27.7 89.51 -26.77 89.57 C-25.37 89.64 -25.37 89.64 -23.94 89.71 C-20.94 89.87 -17.95 90.03 -14.95 90.2 C0.75 91.09 0.75 91.09 16.47 91.52 C17.62 91.54 18.77 91.55 19.96 91.56 C22.95 91.54 22.95 91.54 25.74 89.33 C26.15 87.3 26.15 87.3 26.03 84.98 C26.02 84.13 26.01 83.28 26 82.4 C25.98 81.51 25.95 80.62 25.93 79.7 C25.91 78.81 25.9 77.91 25.88 76.98 C25.85 74.77 25.8 72.55 25.74 70.33 C24.46 70.31 23.18 70.3 21.86 70.28 C17.07 70.23 12.28 70.15 7.49 70.07 C5.42 70.03 3.36 70 1.29 69.98 C-1.69 69.95 -4.68 69.9 -7.66 69.84 C-8.57 69.83 -9.48 69.83 -10.42 69.82 C-20.17 69.6 -29.24 67.48 -36.26 60.33 C-43.47 50.54 -43.24 36.34 -41.64 24.83 C-40.1 17.4 -37.05 9.79 -30.64 5.33 C-20.88 0.46 -10.72 -0.11 0 0 Z " fill="#FFFFFF" transform="translate(737.26171875,1075.671875)"/>
<path d="M0 0 C1.07 0 2.14 0.01 3.25 0.01 C4.41 0.01 5.57 0.02 6.77 0.02 C7.99 0.03 9.21 0.04 10.46 0.06 C12.3 0.06 12.3 0.06 14.17 0.06 C23.26 0.1 23.26 0.1 24.4 1.24 C24.56 4.34 24.66 7.42 24.72 10.53 C24.74 11.46 24.76 12.39 24.78 13.35 C24.85 16.33 24.91 19.32 24.96 22.31 C25.01 24.32 25.05 26.34 25.1 28.36 C25.2 33.32 25.3 38.28 25.4 43.24 C30.35 43.57 35.3 43.9 40.4 44.24 C41.06 42.59 41.72 40.94 42.4 39.24 C43.21 37.65 44.05 36.07 44.91 34.5 C45.4 33.61 45.88 32.71 46.39 31.79 C47.17 30.37 47.17 30.37 47.96 28.93 C48.5 27.96 49.03 26.99 49.58 25.99 C50.66 24.02 51.75 22.05 52.84 20.07 C54.27 17.48 55.7 14.88 57.12 12.27 C57.92 10.83 58.73 9.38 59.53 7.93 C59.89 7.26 60.26 6.59 60.63 5.9 C63.17 1.36 63.17 1.36 65.4 0.24 C67.34 0.15 69.28 0.11 71.21 0.11 C72.37 0.11 73.53 0.11 74.72 0.11 C75.94 0.11 77.15 0.11 78.4 0.12 C80.22 0.11 80.22 0.11 82.08 0.11 C83.82 0.11 83.82 0.11 85.59 0.11 C86.66 0.11 87.72 0.11 88.82 0.11 C91.4 0.24 91.4 0.24 93.4 1.24 C92.82 5.12 91.68 7.86 89.66 11.21 C89.1 12.16 88.53 13.12 87.94 14.1 C87.33 15.12 86.72 16.13 86.09 17.18 C80.57 26.48 75.26 35.85 70.14 45.37 C69.67 46.23 69.21 47.09 68.73 47.98 C68.33 48.73 67.92 49.49 67.51 50.26 C66.55 51.97 65.49 53.62 64.4 55.24 C64.73 59.48 66.52 62.64 68.58 66.3 C68.9 66.88 69.22 67.46 69.55 68.05 C70.6 69.93 71.66 71.81 72.71 73.68 C73.44 74.98 74.16 76.27 74.89 77.57 C76.35 80.2 77.82 82.82 79.28 85.44 C82.34 90.92 85.34 96.42 88.34 101.93 C89.09 103.31 89.09 103.31 89.86 104.72 C93.26 110.96 93.26 110.96 94.4 113.24 C90.2 113.2 86 113.13 81.8 113.04 C80.38 113.01 78.95 112.99 77.52 112.97 C75.47 112.95 73.41 112.9 71.36 112.85 C70.12 112.83 68.88 112.81 67.61 112.79 C63.74 112.13 62.75 111.34 60.4 108.24 C59.09 106.06 57.88 103.9 56.72 101.64 C56.22 100.69 56.22 100.69 55.71 99.71 C54.64 97.68 53.58 95.65 52.53 93.62 C50.15 89.06 47.76 84.52 45.33 79.99 C44.46 78.36 43.62 76.72 42.78 75.08 C40.15 69.85 40.15 69.85 35.23 67.23 C33.67 67.39 33.67 67.39 32.09 67.56 C31.04 67.63 29.99 67.71 28.91 67.79 C26.47 67.98 26.47 67.98 25.4 69.24 C25.28 70.59 25.22 71.95 25.2 73.3 C25.18 74.16 25.16 75.03 25.14 75.91 C25.11 77.32 25.11 77.32 25.09 78.75 C25.06 79.7 25.04 80.65 25.02 81.63 C24.96 84.69 24.9 87.75 24.84 90.81 C24.8 92.87 24.75 94.94 24.71 97.01 C24.6 102.09 24.5 107.16 24.4 112.24 C20.43 112.27 16.46 112.29 12.49 112.3 C11.14 112.3 9.79 112.31 8.44 112.32 C6.5 112.33 4.56 112.34 2.62 112.34 C0.87 112.35 0.87 112.35 -0.91 112.36 C-3.6 112.24 -3.6 112.24 -4.6 111.24 C-4.7 109.83 -4.73 108.41 -4.73 107 C-4.74 106.08 -4.74 105.17 -4.74 104.22 C-4.74 103.21 -4.74 102.2 -4.74 101.16 C-4.75 100.1 -4.75 99.04 -4.75 97.94 C-4.76 94.42 -4.76 90.9 -4.77 87.37 C-4.77 84.93 -4.77 82.5 -4.78 80.06 C-4.78 74.94 -4.78 69.82 -4.78 64.71 C-4.78 58.14 -4.8 51.56 -4.81 44.99 C-4.83 39.95 -4.83 34.92 -4.83 29.88 C-4.83 27.46 -4.83 25.03 -4.84 22.61 C-4.85 19.23 -4.85 15.84 -4.84 12.46 C-4.85 11.45 -4.85 10.44 -4.86 9.4 C-4.85 8.48 -4.85 7.56 -4.85 6.61 C-4.85 5.81 -4.85 5.01 -4.85 4.19 C-4.43 0.93 -3.14 0.29 0 0 Z " fill="#FFFFFF" transform="translate(4.597900390625,1075.757080078125)"/>
<path d="M0 0 C0.74 -0 1.48 -0.01 2.25 -0.01 C6.34 0.03 9.84 0.16 13.44 2.31 C16.55 6.39 16.93 10.06 16.98 15.03 C16.99 15.76 17 16.49 17.01 17.25 C17.03 18.8 17.04 20.34 17.05 21.89 C17.06 24.24 17.13 26.59 17.2 28.94 C17.36 39.55 17.36 39.55 15.19 43.69 C11.42 47.42 7.16 48.06 2.01 48.08 C1.14 48.06 0.27 48.03 -0.62 48 C-1.5 48.01 -2.37 48.03 -3.27 48.04 C-7.64 47.99 -10.66 47.7 -14.12 44.89 C-19.02 39.71 -17.79 33.52 -17.8 26.76 C-17.81 24.52 -17.84 22.27 -17.88 20.03 C-17.88 18.6 -17.89 17.16 -17.89 15.73 C-17.9 14.43 -17.91 13.13 -17.92 11.79 C-17.54 8.08 -16.81 6.24 -14.56 3.31 C-9.75 0.06 -5.6 -0.12 0 0 Z " fill="#FFFFFF" transform="translate(730.5625,1232.6875)"/>
<path d="M0 0 C1.11 -0.02 1.11 -0.02 2.23 -0.04 C6.79 -0.01 9.78 0.53 13.38 3.38 C15.87 7.12 15.68 10.09 15.68 14.44 C15.68 15.23 15.68 16.01 15.69 16.82 C15.69 18.49 15.7 20.15 15.69 21.82 C15.69 24.37 15.71 26.91 15.74 29.46 C15.74 31.08 15.74 32.7 15.74 34.31 C15.75 35.08 15.76 35.84 15.77 36.62 C15.72 41.87 15.72 41.87 14.1 44.25 C8.97 47.59 5.02 47.74 -1 47.75 C-1.84 47.77 -2.68 47.8 -3.54 47.82 C-9.04 47.85 -12.34 47.16 -16.62 43.38 C-19.91 38.42 -18.96 32.29 -18.94 26.59 C-18.94 24.51 -18.96 22.44 -18.99 20.37 C-18.99 19.05 -18.99 17.74 -18.99 16.38 C-18.99 15.18 -18.99 13.98 -19 12.75 C-18.58 8.97 -17.63 6.58 -15.62 3.38 C-10.44 0.32 -5.93 -0.09 0 0 Z " fill="#FFFFFF" transform="translate(469.625,1232.625)"/>
<path d="M0 0 C2.74 4.42 3.38 7.81 3.4 12.97 C3.4 14.94 3.4 14.94 3.41 16.95 C3.4 17.62 3.4 18.3 3.39 19 C3.38 21.06 3.39 23.12 3.41 25.19 C3.41 26.5 3.4 27.81 3.4 29.16 C3.4 30.35 3.39 31.55 3.39 32.77 C2.96 36.3 2.11 38.17 0 41 C-5.51 45.2 -12.39 44.49 -19 44 C-19.33 43.67 -19.66 43.34 -20 43 C-21.49 42.79 -23 42.63 -24.5 42.5 C-28.89 42.11 -28.89 42.11 -30 41 C-30.11 37.99 -30.16 35.01 -30.17 32 C-30.17 31.1 -30.17 30.2 -30.18 29.26 C-30.18 27.35 -30.19 25.43 -30.19 23.52 C-30.19 20.58 -30.21 17.64 -30.22 14.7 C-30.23 12.84 -30.23 10.99 -30.23 9.13 C-30.24 8.25 -30.24 7.36 -30.25 6.45 C-30.23 0.23 -30.23 0.23 -28 -2 C-18.93 -3.46 -8.07 -5.15 0 0 Z " fill="#FFFFFF" transform="translate(429,1236)"/>
<path d="M0 0 C3.75 0.75 3.75 0.75 5.44 2.77 C7 5.38 8.41 8.02 9.75 10.75 C10.37 11.9 10.99 13.06 11.62 14.25 C12.75 16.75 12.75 16.75 12.75 18.75 C14.07 19.08 15.39 19.41 16.75 19.75 C17.01 19.25 17.27 18.74 17.54 18.22 C18.73 15.94 19.93 13.66 21.12 11.38 C21.54 10.58 21.95 9.79 22.38 8.97 C22.77 8.21 23.17 7.45 23.59 6.66 C23.95 5.96 24.32 5.26 24.7 4.54 C25.75 2.75 25.75 2.75 27.75 0.75 C30.75 0.44 30.75 0.44 33.75 0.75 C35.8 3.82 36 4.41 35.98 7.85 C35.98 8.67 35.98 9.5 35.98 10.34 C35.97 11.22 35.96 12.1 35.95 13.01 C35.94 13.92 35.94 14.82 35.94 15.76 C35.93 18.65 35.9 21.54 35.88 24.44 C35.86 26.4 35.86 28.36 35.85 30.32 C35.83 35.13 35.79 39.94 35.75 44.75 C34.27 44.78 32.79 44.8 31.31 44.81 C30.49 44.82 29.67 44.84 28.82 44.85 C26.75 44.75 26.75 44.75 25.75 43.75 C25.66 42.04 25.64 40.33 25.65 38.62 C25.66 37.59 25.66 36.55 25.66 35.49 C25.67 34.4 25.68 33.31 25.69 32.19 C25.69 31.1 25.7 30 25.7 28.88 C25.71 26.17 25.73 23.46 25.75 20.75 C25.09 20.75 24.43 20.75 23.75 20.75 C23.48 21.64 23.21 22.52 22.94 23.44 C20.83 29.31 20.83 29.31 18.75 31.75 C15.38 32.56 15.38 32.56 11.75 31.75 C9.57 29.33 8.17 26.66 6.75 23.75 C6.09 22.43 5.43 21.11 4.75 19.75 C4.42 28 4.09 36.25 3.75 44.75 C1.11 44.75 -1.53 44.75 -4.25 44.75 C-6.39 42.61 -5.41 37.72 -5.42 34.75 C-5.42 33.85 -5.42 32.95 -5.43 32.01 C-5.43 30.1 -5.44 28.18 -5.44 26.27 C-5.44 23.33 -5.46 20.39 -5.47 17.45 C-5.48 15.59 -5.48 13.74 -5.48 11.88 C-5.49 11 -5.49 10.11 -5.5 9.2 C-5.47 1.26 -5.47 1.26 0 0 Z " fill="#FFFFFF" transform="translate(98.25,1233.25)"/>
<path d="M0 0 C2.85 1.84 2.96 2.45 3.81 5.62 C4.18 7.37 4.53 9.12 4.85 10.88 C5.04 11.8 5.24 12.73 5.43 13.68 C6.04 16.64 6.61 19.6 7.18 22.57 C7.78 25.53 8.38 28.49 8.98 31.45 C9.35 33.3 9.72 35.14 10.08 36.99 C10.24 37.82 10.4 38.66 10.57 39.52 C10.71 40.25 10.86 40.99 11 41.74 C11.38 43.65 11.38 43.65 12.43 45.57 C8.8 45.24 5.17 44.91 1.43 44.57 C-1.57 36.82 -1.57 36.82 -1.57 34.57 C-7.51 35.06 -7.51 35.06 -13.57 35.57 C-14.56 38.54 -15.55 41.51 -16.57 44.57 C-21.02 45.06 -21.02 45.06 -25.57 45.57 C-26.7 41.02 -25.96 38.08 -24.8 33.7 C-24.61 32.94 -24.41 32.18 -24.21 31.39 C-23.8 29.79 -23.38 28.19 -22.96 26.59 C-22.32 24.14 -21.7 21.7 -21.08 19.25 C-20.68 17.69 -20.27 16.13 -19.86 14.57 C-19.68 13.84 -19.5 13.12 -19.31 12.37 C-16.77 2.85 -16.77 2.85 -12.32 0.25 C-8.07 -0.81 -4.3 -0.73 0 0 Z " fill="#FFFFFF" transform="translate(317.5673828125,1233.43359375)"/>
<path d="M0 0 C1.19 2.85 1.19 2.85 2 6.62 C2.15 7.31 2.3 7.99 2.46 8.69 C3 11.13 3.5 13.56 4 16 C4.45 18.1 4.91 20.2 5.36 22.29 C6.27 26.53 7.17 30.77 8.05 35.02 C8.23 35.91 8.41 36.8 8.6 37.71 C9 40 9 40 9 43 C7.54 43.05 6.08 43.09 4.62 43.12 C3.81 43.15 3 43.17 2.16 43.2 C0 43 0 43 -2 41 C-2.72 38.68 -3.39 36.35 -4 34 C-8.29 34 -12.58 34 -17 34 C-17.66 36.97 -18.32 39.94 -19 43 C-21.97 43 -24.94 43 -28 43 C-27.36 35.04 -25.58 27.54 -23.62 19.81 C-23.17 17.95 -23.17 17.95 -22.7 16.04 C-22.4 14.84 -22.1 13.63 -21.79 12.39 C-21.52 11.31 -21.25 10.23 -20.97 9.11 C-18.4 0.85 -18.4 0.85 -14.75 -1.38 C-9.54 -2.56 -4.7 -2.73 0 0 Z " fill="#FFFFFF" transform="translate(68,1235)"/>
<path d="M0 0 C3.65 0.68 3.97 1.06 6.08 3.89 C7.02 5.32 7.95 6.77 8.85 8.23 C9.32 8.94 9.78 9.65 10.26 10.39 C11.6 12.45 12.91 14.52 14.23 16.6 C16.6 20.73 16.6 20.73 20.23 23.6 C20.25 22.98 20.27 22.35 20.29 21.71 C20.38 18.88 20.49 16.05 20.6 13.23 C20.63 12.24 20.66 11.26 20.7 10.24 C20.73 9.3 20.77 8.36 20.81 7.39 C20.84 6.52 20.88 5.65 20.91 4.76 C21.23 2.6 21.23 2.6 23.23 0.6 C26.29 0.41 26.29 0.41 29.23 0.6 C30.23 1.6 30.23 1.6 30.35 3.35 C30.34 4.12 30.34 4.88 30.34 5.66 C30.34 6.52 30.34 7.38 30.34 8.27 C30.33 9.21 30.33 10.14 30.32 11.11 C30.32 12.06 30.32 13.01 30.32 13.99 C30.31 17.05 30.3 20.11 30.29 23.16 C30.28 25.23 30.28 27.3 30.28 29.37 C30.26 34.44 30.25 39.52 30.23 44.6 C23.56 44.87 23.56 44.87 20.54 42.47 C18.25 39.64 16.2 36.79 14.23 33.73 C11.33 29.25 8.34 24.95 5.23 20.6 C4.9 28.52 4.57 36.44 4.23 44.6 C1.59 44.6 -1.05 44.6 -3.77 44.6 C-5.92 42.46 -4.94 37.58 -4.94 34.61 C-4.94 33.7 -4.95 32.8 -4.95 31.87 C-4.96 29.95 -4.96 28.03 -4.96 26.12 C-4.96 23.18 -4.98 20.24 -5 17.3 C-5 15.45 -5 13.59 -5 11.73 C-5.01 10.85 -5.02 9.96 -5.03 9.05 C-5 1.08 -5 1.08 0 0 Z " fill="#FFFFFF" transform="translate(189.7734375,1233.3984375)"/>
<path d="M0 0 C3.44 0.19 3.44 0.19 4.44 1.19 C4.53 3.71 4.55 6.2 4.54 8.72 C4.53 9.48 4.53 10.23 4.53 11.01 C4.53 13.42 4.51 15.84 4.5 18.25 C4.49 19.88 4.49 21.52 4.49 23.15 C4.48 27.16 4.46 31.18 4.44 35.19 C8.73 35.52 13.02 35.85 17.44 36.19 C17.43 35.17 17.42 34.15 17.41 33.1 C17.37 29.32 17.35 25.55 17.33 21.77 C17.32 20.14 17.3 18.5 17.29 16.86 C17.26 14.52 17.25 12.17 17.24 9.82 C17.23 8.72 17.23 8.72 17.21 7.6 C17.21 5.79 17.32 3.99 17.44 2.19 C19.44 0.19 19.44 0.19 21.35 -0.04 C27.33 0.08 27.33 0.08 28.44 1.19 C28.58 3.94 28.65 6.67 28.68 9.42 C28.68 10.25 28.69 11.08 28.7 11.94 C28.71 13.7 28.72 15.46 28.73 17.22 C28.75 19.91 28.79 22.6 28.84 25.29 C28.85 27 28.86 28.71 28.86 30.42 C28.88 31.22 28.9 32.03 28.92 32.85 C28.9 36.77 28.73 38.72 26.6 42.11 C21.83 46.69 18.45 46.58 12.19 46.62 C11.35 46.66 10.52 46.69 9.66 46.72 C3.32 46.78 0.21 45.38 -4.56 41.19 C-6.17 37.98 -5.73 34.49 -5.73 30.97 C-5.73 30.16 -5.74 29.34 -5.74 28.5 C-5.75 26.78 -5.75 25.06 -5.75 23.34 C-5.75 20.7 -5.77 18.06 -5.79 15.42 C-5.79 13.75 -5.79 12.08 -5.79 10.41 C-5.8 9.22 -5.8 9.22 -5.81 8 C-5.78 0.3 -5.78 0.3 0 0 Z " fill="#FFFFFF" transform="translate(569.5625,1233.8125)"/>
<path d="M0 0 C3.44 0.19 3.44 0.19 4.44 1.19 C4.67 3.71 4.86 6.22 5 8.75 C5.04 9.46 5.09 10.17 5.13 10.9 C5.24 12.67 5.34 14.43 5.44 16.19 C9.4 16.52 13.36 16.85 17.44 17.19 C17.41 16.13 17.39 15.07 17.37 13.98 C17.35 12.59 17.33 11.2 17.31 9.81 C17.3 9.11 17.28 8.42 17.26 7.7 C17.24 5.86 17.33 4.02 17.44 2.19 C19.44 0.19 19.44 0.19 21.35 -0.04 C27.33 0.08 27.33 0.08 28.44 1.19 C28.53 2.54 28.55 3.89 28.55 5.25 C28.55 6.11 28.55 6.97 28.55 7.86 C28.55 8.79 28.54 9.73 28.54 10.69 C28.53 11.64 28.53 12.6 28.53 13.58 C28.53 16.64 28.51 19.69 28.5 22.75 C28.49 24.82 28.49 26.88 28.49 28.95 C28.48 34.03 28.46 39.11 28.44 44.19 C26.79 44.21 25.15 44.23 23.5 44.25 C22.58 44.26 21.67 44.27 20.72 44.29 C18.44 44.19 18.44 44.19 17.44 43.19 C17.2 40.5 17.02 37.82 16.88 35.12 C16.83 34.37 16.79 33.61 16.74 32.83 C16.64 30.95 16.54 29.07 16.44 27.19 C14.79 27.16 13.15 27.14 11.5 27.12 C10.13 27.11 10.13 27.11 8.72 27.09 C6.47 26.93 6.47 26.93 5.44 28.19 C5.2 30.88 5.02 33.55 4.88 36.25 C4.83 37.01 4.79 37.77 4.74 38.55 C4.64 40.43 4.54 42.31 4.44 44.19 C2.96 44.21 1.48 44.23 0 44.25 C-0.82 44.26 -1.65 44.27 -2.5 44.29 C-4.56 44.19 -4.56 44.19 -5.56 43.19 C-5.68 40.18 -5.73 37.2 -5.73 34.19 C-5.73 33.29 -5.74 32.38 -5.74 31.45 C-5.75 29.54 -5.75 27.62 -5.75 25.7 C-5.75 22.77 -5.77 19.83 -5.79 16.89 C-5.79 15.03 -5.79 13.17 -5.79 11.32 C-5.8 10.43 -5.81 9.55 -5.81 8.64 C-5.78 0.3 -5.78 0.3 0 0 Z " fill="#FFFFFF" transform="translate(245.5625,1233.8125)"/>
<path d="M0 0 C2.59 0.39 2.59 0.39 4.4 2.18 C4.94 3 5.48 3.82 6.04 4.66 C6.94 5.99 6.94 5.99 7.86 7.35 C8.78 8.77 8.78 8.77 9.72 10.2 C10.94 12.05 12.18 13.89 13.41 15.72 C13.95 16.55 14.49 17.37 15.04 18.22 C16.43 20.17 17.84 21.77 19.59 23.39 C19.61 22.77 19.63 22.14 19.65 21.5 C19.75 18.67 19.86 15.84 19.97 13.02 C20 12.03 20.03 11.05 20.06 10.03 C20.1 9.09 20.14 8.15 20.18 7.18 C20.21 6.31 20.24 5.44 20.27 4.55 C20.59 2.39 20.59 2.39 22.59 0.39 C25.65 0.2 25.65 0.2 28.59 0.39 C29.59 1.39 29.59 1.39 29.71 3.14 C29.71 3.91 29.71 4.67 29.7 5.45 C29.7 6.31 29.7 7.17 29.7 8.06 C29.7 9 29.69 9.93 29.69 10.9 C29.69 11.85 29.69 12.8 29.68 13.78 C29.68 16.84 29.67 19.9 29.65 22.95 C29.65 25.02 29.64 27.09 29.64 29.16 C29.63 34.23 29.61 39.31 29.59 44.39 C22.91 44.63 22.91 44.63 20.05 42.47 C16.89 38.52 14.05 34.43 11.28 30.2 C10.45 28.98 10.45 28.98 9.61 27.72 C5.59 21.65 5.59 21.65 5.59 19.39 C4.93 19.39 4.27 19.39 3.59 19.39 C3.59 27.64 3.59 35.89 3.59 44.39 C1.28 44.39 -1.03 44.39 -3.41 44.39 C-5.55 42.25 -4.57 37.37 -4.58 34.4 C-4.58 33.49 -4.58 32.59 -4.59 31.66 C-4.59 29.74 -4.6 27.83 -4.59 25.91 C-4.6 22.97 -4.62 20.03 -4.63 17.09 C-4.64 15.24 -4.64 13.38 -4.64 11.52 C-4.65 10.64 -4.65 9.75 -4.66 8.84 C-4.63 0.75 -4.63 0.75 0 0 Z " fill="#FFFFFF" transform="translate(349.40966796875,1233.608154296875)"/>
<path d="M0 0 C3.11 0.44 3.11 0.44 5.14 2.53 C5.72 3.49 6.31 4.45 6.91 5.43 C7.88 6.98 7.88 6.98 8.87 8.56 C9.53 9.66 10.19 10.75 10.86 11.87 C12.19 14.02 13.51 16.17 14.85 18.31 C15.43 19.27 16.01 20.23 16.6 21.21 C17.92 23.55 17.92 23.55 20.11 24.44 C20.13 23.78 20.15 23.13 20.17 22.45 C20.27 19.49 20.38 16.52 20.49 13.56 C20.52 12.53 20.55 11.5 20.58 10.43 C20.62 9.45 20.66 8.46 20.7 7.45 C20.73 6.53 20.76 5.62 20.79 4.68 C21.11 2.44 21.11 2.44 23.11 0.44 C25.67 0.25 25.67 0.25 28.11 0.44 C29.11 1.44 29.11 1.44 29.23 3.19 C29.23 3.95 29.23 4.71 29.23 5.5 C29.23 6.36 29.23 7.22 29.23 8.11 C29.22 9.04 29.22 9.98 29.21 10.94 C29.21 11.89 29.21 12.85 29.21 13.83 C29.2 16.89 29.19 19.94 29.17 23 C29.17 25.07 29.17 27.13 29.16 29.2 C29.15 34.28 29.13 39.36 29.11 44.44 C23.42 44.68 23.42 44.68 20.63 42.48 C17.5 38.7 14.61 34.82 11.8 30.81 C11.25 30.05 10.7 29.29 10.13 28.5 C9.61 27.76 9.1 27.03 8.56 26.27 C8.09 25.61 7.62 24.94 7.13 24.26 C6.11 22.44 6.11 22.44 6.11 19.44 C5.45 19.44 4.79 19.44 4.11 19.44 C4.11 27.69 4.11 35.94 4.11 44.44 C1.47 44.44 -1.17 44.44 -3.89 44.44 C-6.03 42.3 -5.05 37.41 -5.06 34.44 C-5.06 33.54 -5.06 32.63 -5.07 31.7 C-5.07 29.79 -5.07 27.87 -5.07 25.95 C-5.08 23.02 -5.09 20.08 -5.11 17.14 C-5.12 15.28 -5.12 13.42 -5.12 11.57 C-5.13 10.68 -5.13 9.8 -5.14 8.89 C-5.11 0.77 -5.11 0.77 0 0 Z " fill="#FFFFFF" transform="translate(621.8876953125,1233.562744140625)"/>
<path d="M0 0 C0 2.64 0 5.28 0 8 C-1.14 8.06 -2.29 8.12 -3.46 8.18 C-4.96 8.27 -6.45 8.35 -7.94 8.44 C-9.07 8.5 -9.07 8.5 -10.22 8.56 C-13.92 8.44 -13.92 8.44 -17 10 C-17.04 11.67 -17.04 13.33 -17 15 C-16.12 15.09 -15.24 15.17 -14.33 15.26 C-3.66 16.55 -3.66 16.55 -0.81 19.5 C-0.21 20.33 0.38 21.15 1 22 C1.66 22.66 2.32 23.32 3 24 C3.23 26.15 3.23 26.15 3.2 28.79 C3.19 29.73 3.18 30.67 3.18 31.64 C3.16 32.63 3.14 33.61 3.12 34.62 C3.12 35.62 3.11 36.61 3.1 37.63 C3.07 40.09 3.04 42.54 3 45 C-0.48 45.03 -3.96 45.05 -7.44 45.06 C-8.93 45.08 -8.93 45.08 -10.45 45.09 C-11.39 45.09 -12.34 45.09 -13.31 45.1 C-14.18 45.1 -15.06 45.11 -15.96 45.11 C-18 45 -18 45 -19 44 C-20.33 43.79 -21.66 43.63 -23 43.5 C-26.89 43.11 -26.89 43.11 -28 42 C-27.69 38.5 -27.69 38.5 -27 35 C-23.69 33.35 -20.01 33.9 -16.38 33.94 C-15.17 33.94 -15.17 33.94 -13.95 33.95 C-11.96 33.96 -9.98 33.98 -8 34 C-8.33 31.69 -8.66 29.38 -9 27 C-9.87 26.91 -10.74 26.83 -11.63 26.74 C-23.34 25.31 -23.34 25.31 -28 20 C-29.78 14.65 -29.67 9.86 -27.5 4.69 C-25.43 1 -23.31 -0.44 -19.28 -1.61 C-12.5 -2.78 -6.47 -2.25 0 0 Z " fill="#FFFFFF" transform="translate(793,1235)"/>
<path d="M0 0 C0.76 -0.01 1.53 -0.01 2.32 -0.02 C3.94 -0.03 5.55 -0.03 7.17 -0.03 C9.65 -0.04 12.12 -0.08 14.59 -0.11 C16.17 -0.12 17.74 -0.12 19.31 -0.12 C20.05 -0.14 20.79 -0.15 21.55 -0.17 C25.01 -0.14 26.93 0.06 29.73 2.18 C32.1 5.45 32.49 8.26 32.6 12.21 C32.66 13.48 32.66 13.48 32.71 14.77 C32.12 18.38 30.95 19.81 28.29 22.34 C25.28 22.79 22.84 22.95 19.84 22.86 C19.03 22.85 18.21 22.85 17.38 22.85 C14.78 22.82 12.19 22.77 9.6 22.71 C7.85 22.69 6.09 22.68 4.33 22.67 C-8.52 22.53 -8.52 22.53 -9.71 21.34 C-9.96 18.2 -9.9 15.05 -9.9 11.9 C-9.91 11.01 -9.92 10.13 -9.94 9.22 C-9.94 8.37 -9.94 7.52 -9.94 6.65 C-9.95 5.87 -9.95 5.09 -9.95 4.29 C-9.29 -1.06 -4.17 0.01 0 0 Z " fill="#00000000" transform="translate(468.7109375,1143.6640625)"/>
<path d="M0 0 C1.04 0 1.04 0 2.1 0 C4.22 -0 6.33 -0.04 8.44 -0.08 C9.78 -0.08 11.13 -0.09 12.47 -0.09 C13.7 -0.1 14.92 -0.11 16.18 -0.11 C19.93 0.46 21.06 1.42 23.36 4.37 C24.7 7.06 24.6 9.25 24.67 12.25 C24.72 13.82 24.72 13.82 24.78 15.43 C24.24 19.18 23.36 20.09 20.36 22.37 C16.98 22.84 16.98 22.84 13 22.8 C11.95 22.79 11.95 22.79 10.87 22.79 C9.39 22.78 7.92 22.76 6.44 22.73 C4.17 22.68 1.89 22.67 -0.38 22.65 C-11.46 22.55 -11.46 22.55 -12.64 21.37 C-12.89 18.23 -12.83 15.08 -12.83 11.93 C-12.84 11.05 -12.86 10.16 -12.87 9.25 C-12.87 8.41 -12.87 7.56 -12.88 6.69 C-12.88 5.91 -12.88 5.13 -12.89 4.33 C-12.13 -1.76 -4.63 0.03 0 0 Z " fill="#00000000" transform="translate(471.64453125,1098.62890625)"/>
<path d="M0 0 C0.78 0.01 1.55 0.01 2.35 0.02 C8.03 0.1 8.03 0.1 9.19 1.25 C9.33 3.92 9.23 6.57 9.19 9.25 C8.19 9.31 7.19 9.37 6.16 9.43 C4.22 9.56 4.22 9.56 2.25 9.69 C0.96 9.77 -0.33 9.85 -1.65 9.93 C-4.67 9.9 -4.67 9.9 -5.81 11.25 C-5.9 12.96 -5.92 14.67 -5.91 16.38 C-5.91 17.41 -5.9 18.45 -5.9 19.51 C-5.89 20.6 -5.88 21.69 -5.88 22.81 C-5.87 23.9 -5.87 25 -5.86 26.12 C-5.85 28.83 -5.83 31.54 -5.81 34.25 C-4.31 34.34 -4.31 34.34 -2.79 34.43 C-1.49 34.52 -0.2 34.6 1.12 34.69 C2.41 34.77 3.7 34.85 5.03 34.93 C8.19 35.25 8.19 35.25 9.19 36.25 C9.33 38.92 9.23 41.57 9.19 44.25 C5.96 44.34 2.73 44.39 -0.5 44.44 C-1.41 44.46 -2.32 44.49 -3.26 44.51 C-11.82 44.61 -11.82 44.61 -15.81 41.25 C-18.05 36.77 -17 30.63 -17 25.65 C-17 23.39 -17.02 21.14 -17.04 18.88 C-17.04 17.44 -17.04 16.01 -17.04 14.57 C-17.05 13.26 -17.05 11.96 -17.06 10.61 C-16.83 7.48 -16.58 5.8 -14.81 3.25 C-9.91 -0.05 -5.69 -0.16 0 0 Z " fill="#FFFFFF" transform="translate(16.8125,1233.75)"/>
<path d="M0 0 C1.73 0.01 1.73 0.01 3.5 0.01 C4.76 0.01 6.01 0.02 7.3 0.02 C9.27 0.04 9.27 0.04 11.28 0.06 C12.6 0.06 13.92 0.06 15.28 0.06 C25.08 0.1 25.08 0.1 26.22 1.24 C26.36 3.91 26.26 6.57 26.22 9.24 C24.17 9.47 22.12 9.7 20.07 9.93 C18.21 10.06 18.21 10.06 17.22 11.24 C17.06 13.69 16.96 16.11 16.9 18.56 C16.88 19.29 16.86 20.02 16.84 20.77 C16.77 23.12 16.71 25.46 16.66 27.81 C16.61 29.39 16.57 30.98 16.53 32.56 C16.42 36.46 16.32 40.35 16.22 44.24 C14.57 44.27 12.93 44.29 11.28 44.31 C10.36 44.32 9.45 44.33 8.5 44.34 C6.22 44.24 6.22 44.24 5.22 43.24 C5.06 40.8 4.96 38.38 4.9 35.93 C4.88 35.2 4.86 34.46 4.84 33.71 C4.77 31.37 4.71 29.02 4.66 26.68 C4.61 25.1 4.57 23.51 4.53 21.92 C4.42 18.03 4.32 14.14 4.22 10.24 C2.92 10.1 1.62 9.95 0.28 9.81 C-3.66 9.37 -3.66 9.37 -4.78 8.24 C-4.97 5.31 -4.97 5.31 -4.78 2.24 C-2.78 0.24 -2.78 0.24 0 0 Z " fill="#FFFFFF" transform="translate(671.781494140625,1233.757080078125)"/>
<path d="M0 0 C3.44 0.19 3.44 0.19 4.44 1.19 C4.56 4.03 4.63 6.84 4.64 9.68 C4.65 10.53 4.65 11.39 4.66 12.27 C4.67 14.08 4.67 15.89 4.68 17.71 C4.69 20.48 4.72 23.25 4.75 26.02 C4.76 27.78 4.76 29.54 4.77 31.3 C4.78 32.13 4.79 32.96 4.8 33.81 C4.78 39.58 4.78 39.58 3.03 42.67 C0.33 45.24 -1.61 46.12 -5.36 46.38 C-6.82 46.35 -6.82 46.35 -8.31 46.31 C-9.79 46.29 -9.79 46.29 -11.3 46.26 C-12.04 46.23 -12.79 46.21 -13.56 46.19 C-13.76 40.13 -13.76 40.13 -13.56 38.19 C-11.56 36.19 -11.56 36.19 -8.44 36.06 C-7.49 36.1 -6.54 36.14 -5.56 36.19 C-5.57 35.17 -5.58 34.15 -5.59 33.1 C-5.63 29.32 -5.65 25.55 -5.67 21.77 C-5.68 20.14 -5.7 18.5 -5.71 16.86 C-5.74 14.52 -5.75 12.17 -5.76 9.82 C-5.77 8.72 -5.77 8.72 -5.79 7.6 C-5.79 5.79 -5.68 3.99 -5.56 2.19 C-3.56 0.19 -3.56 0.19 0 0 Z " fill="#FFFFFF" transform="translate(539.5625,1233.8125)"/>
<path d="M0 0 C5.98 0.12 5.98 0.12 7.09 1.23 C7.18 2.58 7.21 3.94 7.2 5.29 C7.2 6.15 7.2 7.01 7.2 7.9 C7.2 8.84 7.19 9.77 7.19 10.73 C7.19 11.69 7.18 12.64 7.18 13.62 C7.18 16.68 7.17 19.74 7.15 22.79 C7.15 24.86 7.14 26.93 7.14 28.99 C7.13 34.07 7.11 39.15 7.09 44.23 C5.44 44.26 3.8 44.28 2.15 44.29 C1.24 44.3 0.32 44.32 -0.62 44.33 C-2.91 44.23 -2.91 44.23 -3.91 43.23 C-4.02 40.22 -4.07 37.24 -4.08 34.23 C-4.08 33.33 -4.08 32.43 -4.09 31.5 C-4.09 29.58 -4.1 27.66 -4.1 25.75 C-4.1 22.81 -4.12 19.87 -4.13 16.93 C-4.14 15.07 -4.14 13.22 -4.14 11.36 C-4.15 10.48 -4.15 9.59 -4.16 8.68 C-4.13 0.5 -4.13 0.5 0 0 Z " fill="#FFFFFF" transform="translate(157.91015625,1233.76953125)"/>
<path d="M0 0 C3.81 2.54 4.06 4.31 5.48 8.62 C5.81 9.6 5.81 9.6 6.14 10.6 C6.6 11.98 7.05 13.36 7.5 14.75 C8.18 16.86 8.89 18.97 9.59 21.08 C13 31.43 13 31.43 13 36 C5.41 36 -2.18 36 -10 36 C-11.34 31.98 -10.03 29.33 -8.69 25.49 C-8.45 24.76 -8.2 24.03 -7.95 23.28 C-7.16 20.96 -6.36 18.63 -5.56 16.31 C-5.03 14.74 -4.49 13.16 -3.96 11.58 C-2.65 7.72 -1.33 3.86 0 0 Z " fill="#00000000" transform="translate(176,1112)"/>
<path d="M0 0 C0.66 0 1.32 0 2 0 C3.57 4.64 5.14 9.29 6.7 13.93 C7.23 15.51 7.77 17.1 8.3 18.67 C9.07 20.94 9.83 23.22 10.59 25.49 C10.83 26.19 11.07 26.9 11.32 27.63 C12.3 30.55 13 32.9 13 36 C5.08 36 -2.84 36 -11 36 C-10.25 30.76 -9.43 26.85 -7.71 21.97 C-7.49 21.34 -7.27 20.71 -7.05 20.05 C-6.35 18.05 -5.64 16.06 -4.94 14.06 C-4.46 12.7 -3.98 11.33 -3.51 9.97 C-2.34 6.64 -1.17 3.32 0 0 Z " fill="#00000000" transform="translate(612,1112)"/>
<path d="M0 0 C0.9 0.03 1.8 0.05 2.73 0.08 C3.76 0.13 3.76 0.13 4.81 0.19 C6.17 2.9 5.92 5.04 5.91 8.07 C5.91 9.24 5.9 10.4 5.9 11.61 C5.89 12.83 5.88 14.05 5.88 15.31 C5.87 16.54 5.87 17.77 5.86 19.04 C5.85 22.09 5.83 25.14 5.81 28.19 C3.85 28.21 1.9 28.23 -0.06 28.25 C-1.15 28.26 -2.24 28.27 -3.37 28.29 C-6.19 28.19 -6.19 28.19 -8.19 27.19 C-8.27 23.25 -8.33 19.31 -8.38 15.38 C-8.4 14.26 -8.43 13.14 -8.45 11.98 C-8.46 10.91 -8.47 9.84 -8.48 8.73 C-8.5 7.74 -8.51 6.75 -8.53 5.73 C-8.19 3.19 -8.19 3.19 -6.82 1.36 C-4.51 -0.3 -2.81 -0.11 0 0 Z " fill="#00000000" transform="translate(731.1875,1241.8125)"/>
<path d="M0 0 C0.9 0.03 1.8 0.05 2.73 0.08 C3.76 0.13 3.76 0.13 4.81 0.19 C6.17 2.9 5.92 5.04 5.91 8.07 C5.91 9.24 5.9 10.4 5.9 11.61 C5.89 12.83 5.88 14.05 5.88 15.31 C5.87 16.54 5.87 17.77 5.86 19.04 C5.85 22.09 5.83 25.14 5.81 28.19 C3.85 28.21 1.9 28.23 -0.06 28.25 C-1.15 28.26 -2.24 28.27 -3.37 28.29 C-6.19 28.19 -6.19 28.19 -8.19 27.19 C-8.27 23.25 -8.33 19.31 -8.38 15.38 C-8.4 14.26 -8.43 13.14 -8.45 11.98 C-8.46 10.91 -8.47 9.84 -8.48 8.73 C-8.5 7.74 -8.51 6.75 -8.53 5.73 C-8.19 3.19 -8.19 3.19 -6.82 1.36 C-4.51 -0.3 -2.81 -0.11 0 0 Z " fill="#00000000" transform="translate(469.1875,1241.8125)"/>
<path d="M0 0 C0.8 0.01 1.61 0.03 2.43 0.04 C3.64 0.05 3.64 0.05 4.88 0.06 C6.87 0.23 6.87 0.23 7.87 1.23 C7.96 3.23 7.98 5.23 7.97 7.23 C7.97 8.45 7.96 9.66 7.96 10.92 C7.95 12.2 7.94 13.47 7.93 14.79 C7.93 16.08 7.92 17.36 7.92 18.68 C7.91 21.86 7.89 25.05 7.87 28.23 C6.06 28.26 4.25 28.28 2.43 28.29 C1.42 28.3 0.41 28.32 -0.62 28.33 C-3.13 28.23 -3.13 28.23 -4.13 27.23 C-4.38 23.09 -4.31 18.94 -4.32 14.79 C-4.33 13.62 -4.34 12.45 -4.35 11.24 C-4.36 10.13 -4.36 9.01 -4.36 7.86 C-4.36 6.83 -4.37 5.8 -4.37 4.74 C-4.06 1.51 -3.3 0.36 0 0 Z " fill="#00000000" transform="translate(413.12890625,1241.76953125)"/>
<path d="M0 0 C0.66 0.33 1.32 0.66 2 1 C2.61 3.29 3.11 5.61 3.56 7.94 C4.37 12.61 4.37 12.61 6 17 C2.7 17 -0.6 17 -4 17 C-5.05 12.81 -4.83 11.39 -3.69 7.38 C-3.42 6.41 -3.16 5.45 -2.89 4.46 C-2 2 -2 2 0 0 Z " fill="#00000000" transform="translate(310,1243)"/>
<path d="M0 0 C2.51 1.9 3 3.01 3.73 6.14 C3.88 7.31 4.03 8.48 4.19 9.69 C4.35 10.87 4.5 12.05 4.67 13.26 C4.78 14.17 4.89 15.07 5 16 C2.03 16 -0.94 16 -4 16 C-5.48 13.05 -4.49 11.15 -3.69 8 C-3.42 6.93 -3.16 5.86 -2.89 4.75 C-2 2 -2 2 0 0 Z " fill="#00000000" transform="translate(58,1243)"/>
<path d="M0 0 C0.33 0 0.66 0 1 0 C1 2.64 1 5.28 1 8 C-2.3 8 -5.6 8 -9 8 C-8 6 -8 6 -5.62 5.12 C-2.67 3.86 -1.75 2.62 0 0 Z " fill="#00000000" transform="translate(795,1272)"/>
</svg>
